<svg width="20" height="22" viewBox="0 0 20 22" fill="none" xmlns="http://www.w3.org/2000/svg">
<path d="M16.0895 6.80525C16.0895 3.36496 13.3022 0.577576 9.86186 0.577576C6.42157 0.577576 3.63418 3.36496 3.63418 6.80525C3.63418 8.88449 4.65371 10.7277 6.22068 11.8577C6.21063 11.8627 6.2031 11.8652 6.19808 11.8678C5.07559 12.3424 4.06861 13.0229 3.20226 13.8917C2.34092 14.7515 1.65517 15.7708 1.18329 16.8926C0.71901 17.9911 0.468442 19.1681 0.445009 20.3605C0.444339 20.3873 0.44904 20.414 0.458835 20.4389C0.46863 20.4639 0.483322 20.4866 0.502044 20.5058C0.520765 20.525 0.543139 20.5402 0.567845 20.5507C0.592552 20.5611 0.619092 20.5664 0.645902 20.5664H2.15009C2.25807 20.5664 2.34847 20.4785 2.35098 20.3705C2.4012 18.4319 3.17715 16.6164 4.55076 15.2402C5.96956 13.8164 7.85293 13.0329 9.86186 13.0329C13.3022 13.0329 16.0895 10.2455 16.0895 6.80525ZM9.86186 11.1245C7.47626 11.1245 5.54267 9.19086 5.54267 6.80525C5.54267 4.41965 7.47626 2.48606 9.86186 2.48606C12.2475 2.48606 14.1811 4.41965 14.1811 6.80525C14.1811 9.19086 12.2475 11.1245 9.86186 11.1245ZM12.4986 16.6741H19.128C19.2385 16.6741 19.3289 16.5837 19.3289 16.4732V15.067C19.3289 14.9565 19.2385 14.8661 19.128 14.8661H14.6958L15.8811 13.3569C15.9084 13.3216 15.9234 13.2784 15.9238 13.2338C15.9238 13.1233 15.8334 13.0329 15.7229 13.0329H13.8998C13.7768 13.0329 13.6612 13.0907 13.5834 13.1861L11.8633 15.3733C11.7528 15.514 11.6925 15.6897 11.6925 15.8705C11.695 16.315 12.0541 16.6741 12.4986 16.6741ZM18.5254 18.2813H11.8959C11.7854 18.2813 11.695 18.3717 11.695 18.4822V19.8884C11.695 19.9989 11.7854 20.0893 11.8959 20.0893H16.3281L15.1428 21.5985C15.1155 21.6337 15.1005 21.677 15.1001 21.7215C15.1001 21.832 15.1905 21.9224 15.301 21.9224H17.1241C17.2472 21.9224 17.3627 21.8647 17.4405 21.7693L19.1607 19.582C19.2712 19.4414 19.3314 19.2656 19.3314 19.0848C19.3289 18.6404 18.9698 18.2813 18.5254 18.2813Z" fill="#FF6B72"/>
</svg>
